<?xml version="1.0" standalone="no"?>
<!DOCTYPE svg PUBLIC "-//W3C//DTD SVG 20010904//EN"
 "http://www.w3.org/TR/2001/REC-SVG-20010904/DTD/svg10.dtd">
<svg version="1.0" xmlns="http://www.w3.org/2000/svg"
 width="512.000000pt" height="512.000000pt" viewBox="0 0 512.000000 512.000000"
 preserveAspectRatio="xMidYMid meet">
<metadata>
Created by potrace 1.11, written by Peter Selinger 2001-2013
</metadata>
<g transform="translate(0.000000,512.000000) scale(0.100000,-0.100000)"
fill="#000000" stroke="none">
<path d="M2517 5114 c-1 -1 -81 -5 -177 -8 -96 -3 -191 -8 -210 -10 -19 -2
-69 -7 -110 -10 -41 -4 -84 -8 -95 -10 -11 -2 -45 -7 -75 -11 -30 -4 -62 -9
-70 -10 -8 -2 -37 -6 -63 -9 -26 -4 -71 -11 -100 -17 -29 -6 -65 -13 -82 -16
-81 -13 -311 -79 -423 -119 -438 -159 -647 -352 -820 -759 -71 -166 -149 -432
-187 -635 -3 -14 -7 -36 -10 -50 -2 -14 -7 -38 -9 -55 -6 -41 -18 -117 -21
-135 -1 -8 -6 -40 -10 -70 -4 -30 -9 -62 -10 -70 -1 -8 -6 -53 -10 -100 -4
-47 -9 -94 -11 -105 -22 -114 -21 -819 0 -955 3 -14 7 -61 11 -105 5 -73 14
-146 31 -250 5 -37 39 -206 50 -250 3 -11 7 -30 9 -41 25 -118 108 -350 171
-476 125 -253 275 -399 539 -527 165 -80 435 -167 640 -206 44 -8 91 -17 105
-20 21 -5 124 -21 256 -40 58 -8 177 -20 338 -32 201 -15 734 -8 911 12 17 2
61 6 100 10 38 4 72 8 75 10 3 2 34 6 70 9 74 7 80 8 255 42 133 25 370 85
434 109 20 7 74 28 121 45 252 95 449 230 566 390 167 227 313 655 360 1055 3
22 7 47 9 55 2 8 7 51 10 95 4 44 8 96 11 115 21 179 22 816 0 940 -2 14 -7
61 -11 104 -3 44 -8 94 -10 110 -2 17 -12 81 -20 141 -9 61 -18 124 -21 142
-6 52 -52 260 -80 363 -85 321 -227 624 -362 775 -136 151 -341 274 -624 373
-150 53 -423 120 -557 137 -15 2 -63 9 -107 15 -108 17 -119 18 -199 25 -38 4
-88 8 -110 11 -67 6 -474 22 -478 18z"/>
</g>
</svg>
